Coordinates
version=1
nRows=38
nColumns=12
inDegrees=yes

Units are S.I. units (second, meters, Newtons, ...)
Angles are in degrees

endheader
time	SC_y	SC_z	SC_x	AC_y	AC_z	AC_x	GH_y	GH_z	GH_yy	EL_x	PS_y
       0.0              -26.68          38.19          71.03          44.75         -7.576          14.81          112.7          57.52         -173.8          48.55          80.35
    0.0163              -26.69          38.19          71.03          44.75         -7.578          14.81          112.7          57.52         -173.8          48.56          80.36
    0.0326              -26.69          38.19          71.02          44.75         -7.579          14.81          112.7          57.51         -173.8          48.57          80.36
    0.0489              -26.69          38.19          71.02          44.75         -7.581           14.8          112.7          57.51         -173.8          48.58          80.36
    0.0652              -26.69          38.19          71.01          44.75         -7.583           14.8          112.7           57.5         -173.8          48.59          80.37
    0.0815               -26.7          38.18          71.01          44.76         -7.585           14.8          112.7           57.5         -173.8          48.59          80.37
    0.0978               -26.7          38.18           71.0          44.76         -7.587          14.79          112.7          57.49         -173.8           48.6          80.38
    0.1141               -26.7          38.18          70.99          44.76         -7.589          14.79          112.7          57.48         -173.8          48.61          80.38
    0.1304              -26.71          38.18          70.98          44.77         -7.592          14.78          112.6          57.48         -173.8          48.62          80.39
    0.1467              -26.71          38.18          70.98          44.77         -7.594          14.78          112.6          57.47         -173.7          48.64           80.4
     0.163              -26.71          38.18          70.97          44.77         -7.597          14.78          112.6          57.46         -173.7          48.65           80.4
    0.1793              -26.72          38.17          70.96          44.78           -7.6          14.77          112.6          57.45         -173.7          48.66          80.41
    0.1956              -26.72          38.17          70.95          44.78         -7.603          14.76          112.6          57.44         -173.7          48.68          80.42
    0.2119              -26.73          38.17          70.93          44.79         -7.607          14.76          112.6          57.43         -173.7          48.69          80.43
    0.2282              -26.73          38.17          70.92          44.79          -7.61          14.75          112.6          57.42         -173.7          48.71          80.43
    0.2445              -26.74          38.17          70.91           44.8         -7.614          14.75          112.6          57.41         -173.7          48.73          80.44
    0.2608              -26.75          38.16          70.89           44.8         -7.619          14.74          112.6          57.39         -173.6          48.75          80.46
    0.2771              -26.75          38.16          70.88          44.81         -7.623          14.73          112.5          57.38         -173.6          48.77          80.47
    0.2934              -26.76          38.16          70.86          44.82         -7.629          14.72          112.5          57.36         -173.6          48.79          80.48
    0.3097              -26.77          38.15          70.84          44.83         -7.634          14.71          112.5          57.34         -173.6          48.82          80.49
     0.326              -26.78          38.15          70.82          44.84         -7.641           14.7          112.5          57.32         -173.6          48.85          80.51
    0.3423              -26.79          38.14           70.8          44.85         -7.648          14.69          112.5           57.3         -173.5          48.88          80.53
    0.3586               -26.8          38.14          70.77          44.86         -7.655          14.67          112.4          57.28         -173.5          48.92          80.54
    0.3749              -26.81          38.13          70.75          44.87         -7.664          14.66          112.4          57.25         -173.5          48.96          80.56
    0.3912              -26.83          38.13          70.72          44.88         -7.673          14.64          112.4          57.22         -173.4           49.0          80.59
    0.4075              -26.84          38.12          70.68           44.9         -7.684          14.62          112.4          57.19         -173.4          49.05          80.61
    0.4238              -26.86          38.12          70.64          44.91         -7.695           14.6          112.3          57.15         -173.4           49.1          80.64
    0.4401              -26.88          38.11           70.6          44.93         -7.709          14.58          112.3          57.11         -173.3          49.16          80.67
    0.4564               -26.9           38.1          70.55          44.95         -7.724          14.56          112.2          57.06         -173.2          49.23          80.71
    0.4727              -26.93          38.09          70.49          44.98         -7.741          14.53          112.2          57.01         -173.2          49.31          80.75
     0.489              -26.96          38.07          70.43           45.0          -7.76          14.49          112.1          56.95         -173.1           49.4           80.8
    0.5053              -26.99          38.06          70.36          45.04         -7.782          14.45          112.1          56.88         -173.0           49.5          80.85
    0.5216              -27.03          38.04          70.27          45.07         -7.808          14.41          112.0           56.8         -172.9          49.62          80.91
    0.5379              -27.08          38.03          70.17          45.11         -7.838          14.36          111.9          56.71         -172.8          49.75          80.99
    0.5542              -27.13           38.0          70.06          45.16         -7.873           14.3          111.8           56.6         -172.7          49.91          81.07
    0.5705              -27.19          37.98          69.92          45.22         -7.914          14.23          111.6          56.47         -172.5           50.1          81.17
    0.5868              -27.26          37.95          69.76          45.29         -7.963          14.14          111.5          56.31         -172.3          50.33          81.29
    0.6031              -27.35          37.91          69.57          45.37         -8.021          14.04          111.3          56.13         -172.1          50.59          81.43
